HIERARCHY
ROOT RootJoint
{
    OFFSET   0.000000   0.000000   0.000000
    CHANNELS 6 Xposition Yposition Zposition Yrotation Xrotation Zrotation
    JOINT lHip
    {
        OFFSET   0.100000  -0.051395   0.000000
        CHANNELS 3 Yrotation Xrotation Zrotation
        JOINT lKnee
        {
            OFFSET   0.000000  -0.410000   0.000000
            CHANNELS 3 Yrotation Xrotation Zrotation
            JOINT lAnkle
            {
                OFFSET   0.000000  -0.390000   0.000000
                CHANNELS 3 Yrotation Xrotation Zrotation
                JOINT lToeJoint
                {
                    OFFSET   0.000000  -0.050000   0.130000
                    CHANNELS 3 Yrotation Xrotation Zrotation
                    End Site
                    {
                        OFFSET   0.010000   0.002000   0.060000
                    }
                }
            }
        }
    }
    JOINT rHip
    {
        OFFSET  -0.100000  -0.051395   0.000000
        CHANNELS 3 Yrotation Xrotation Zrotation
        JOINT rKnee
        {
            OFFSET   0.000000  -0.410000   0.000000
            CHANNELS 3 Yrotation Xrotation Zrotation
            JOINT rAnkle
            {
                OFFSET   0.000000  -0.390000   0.000000
                CHANNELS 3 Yrotation Xrotation Zrotation
                JOINT rToeJoint
                {
                    OFFSET   0.000000  -0.050000   0.130000
                    CHANNELS 3 Yrotation Xrotation Zrotation
                    End Site
                    {
                        OFFSET  -0.010000   0.002000   0.060000
                    }
                }
            }
        }
    }
    JOINT pelvis_lowerback
    {
        OFFSET   0.000000   0.093605   0.000000
        CHANNELS 3 Yrotation Xrotation Zrotation
        JOINT lowerback_torso
        {
            OFFSET   0.000000   0.100000   0.000000
            CHANNELS 3 Yrotation Xrotation Zrotation
            JOINT torso_head
            {
                OFFSET   0.000000   0.282350   0.000000
                CHANNELS 3 Yrotation Xrotation Zrotation
                End Site
                {
                    OFFSET   0.000000   0.192650   0.000000
                }
            }
            JOINT lTorso_Clavicle
            {
                OFFSET   0.001000   0.157500   0.000000
                CHANNELS 3 Yrotation Xrotation Zrotation
                JOINT lShoulder
                {
                    OFFSET   0.117647   0.000000   0.000000
                    CHANNELS 3 Yrotation Xrotation Zrotation
                    JOINT lElbow
                    {
                        OFFSET   0.245000   0.000000   0.000000
                        CHANNELS 3 Yrotation Xrotation Zrotation
                        JOINT lWrist
                        {
                            OFFSET   0.240000   0.000000   0.000000
                            CHANNELS 3 Yrotation Xrotation Zrotation
                            End Site
                            {
                                OFFSET   0.116353  -0.002500   0.000000
                            }
                        }
                    }
                }
            }
            JOINT rTorso_Clavicle
            {
                OFFSET  -0.001000   0.157500   0.000000
                CHANNELS 3 Yrotation Xrotation Zrotation
                JOINT rShoulder
                {
                    OFFSET  -0.117647   0.000000   0.000000
                    CHANNELS 3 Yrotation Xrotation Zrotation
                    JOINT rElbow
                    {
                        OFFSET  -0.245000   0.000000   0.000000
                        CHANNELS 3 Yrotation Xrotation Zrotation
                        JOINT rWrist
                        {
                            OFFSET  -0.240000   0.000000   0.000000
                            CHANNELS 3 Yrotation Xrotation Zrotation
                            End Site
                            {
                                OFFSET  -0.116353  -0.002500   0.000000
                            }
                        }
                    }
                }
            }
        }
    }
}
MOTION
Frames: 5
Frame Time:   0.008333
  0.475069   0.924226  -0.250242  74.201101   9.917833  -1.985296   9.349339  -7.380161  -2.040536   0.000000  10.263900   0.000000  -4.728050  -5.566904   5.571893   0.000000  -7.442450   0.000000  -4.304093 -31.123852  -0.679588   0.000000  49.372200   0.000000 -11.029957  -8.493341   0.591735   0.000000  -8.325950   0.000000   4.722560  -4.039784  -2.767752  -0.255520  -0.720793  -1.698586   5.594768   5.417490   1.831527  11.159752  -3.101151  10.535341 -15.204437   4.155715 -83.351892 -45.025400  -0.000141   0.000041  -8.832524  -2.072550  12.805979  -1.537272 -10.298471  -9.360309  37.876183   4.751282  85.318873  29.379300  -0.000087  -0.000049  -2.467482  13.723346  -8.349012
  0.480758   0.923852  -0.249889  74.371827   9.980310  -2.030540   9.216431  -6.966600  -2.002965   0.000000  10.031000   0.000000  -4.765263  -5.717791   5.559044   0.000000  -7.465050   0.000000  -3.315718 -31.861147  -0.515546   0.000000  48.227600   0.000000 -11.155928  -8.429148   0.550529   0.000000  -8.358100   0.000000   4.564622  -4.049757  -2.745646  -0.415730  -0.683882  -1.637938   5.747360   5.195704   1.722778  10.961565  -3.233342  10.536310 -15.564578   3.805100 -83.249968 -45.457400  -0.000140   0.000043  -8.794207  -2.109429  12.949461  -1.577557 -10.059364  -9.303183  37.747352   4.819173  85.450107  28.865100  -0.000088  -0.000048  -2.425590  13.773619  -8.347725
  0.486573   0.923399  -0.249449  74.556716  10.048118  -2.109362   9.142307  -6.567747  -1.919425   0.000000   9.794300   0.000000  -4.795149  -6.002265   5.286579   0.000000  -7.447050   0.000000  -2.394229 -32.544604  -0.327777   0.000000  46.966600   0.000000 -11.374404  -8.331000   0.535480   0.000000  -8.341400   0.000000   4.409348  -4.089302  -2.705055  -0.577530  -0.586770  -1.547485   5.892010   5.051264   1.622189  10.866681  -3.285839  10.576700 -15.916665   3.224439 -83.180656 -45.738600  -0.000140   0.000043  -8.787972  -1.297690  12.889396  -1.659994 -10.053065  -9.288553  37.673472   4.998691  85.711337  28.337300  -0.000088  -0.000047  -2.445486  13.785714  -8.224672
  0.492633   0.922910  -0.249060  74.730931  10.110729  -2.174027   9.068923  -6.126151  -1.855786   0.000000   9.543200   0.000000  -4.890811  -6.236184   5.251154   0.000000  -7.416800   0.000000  -1.526307 -33.194084  -0.194244   0.000000  45.653300   0.000000 -11.545879  -8.180692   0.591662   0.000000  -8.340050   0.000000   4.239746  -4.132998  -2.655623  -0.753530  -0.512556  -1.465259   6.094316   4.965425   1.545739  10.755799  -3.350131  10.565095 -16.198454   2.770555 -83.061173 -46.170500  -0.000139   0.000044  -8.711672  -1.274430  12.824864  -1.711429  -9.907266  -9.251757  37.587141   5.141480  85.872474  27.854700  -0.000088  -0.000047  -2.478591  13.761404  -8.129753
  0.498586   0.922362  -0.248618  74.884968  10.185131  -2.246707   9.061860  -5.723945  -1.790925   0.000000   9.358300   0.000000  -5.148711  -6.353863   5.669121   0.000000  -7.508200   0.000000  -0.780018 -33.849744  -0.035398   0.000000  44.290900   0.000000 -11.628542  -7.969110   0.433535   0.000000  -8.346100   0.000000   4.093445  -4.148727  -2.618345  -0.904330  -0.463742  -1.371380   6.261931   4.862655   1.467688  10.638044  -3.444709  10.590890 -16.512894   2.300931 -82.984315 -46.561400  -0.000138   0.000045  -8.659789  -1.160323  12.889908  -1.816031  -9.841251  -9.214505  37.534632   5.350208  86.061728  27.405100  -0.000089  -0.000046  -2.539254  13.819938  -8.036130
